<svg xmlns="http://www.w3.org/2000/svg" width="127.905" height="128.391" viewBox="0 0 127.905 128.391">
  <g id="Group_190" data-name="Group 190" transform="translate(-340 -2856.442)">
    <g id="steps" transform="translate(339.028 2856.442)">
      <path id="Path_149" data-name="Path 149" d="M21.172,40.4a20.071,20.071,0,0,0,9.706-2.491H111.17a17.708,17.708,0,0,0,0-35.417H73.2a1.874,1.874,0,0,0,0,3.747H111.17a13.961,13.961,0,0,1,0,27.923H35.755a20.164,20.164,0,0,0,0-27.923H64.461a1.874,1.874,0,0,0,0-3.747H30.877A20.2,20.2,0,1,0,21.172,40.4Zm0-36.651A16.452,16.452,0,1,1,4.72,20.2,16.48,16.48,0,0,1,21.172,3.747Z" transform="translate(-0.001 0)" fill="#4e9a46"/>
      <path id="Path_150" data-name="Path 150" d="M21.172,392.628a20.07,20.07,0,0,0,9.705-2.491H111.17a17.709,17.709,0,0,0,0-35.417H30.877a20.2,20.2,0,1,0-9.705,37.908Zm90-34.16a13.961,13.961,0,0,1,0,27.923H35.755a20.163,20.163,0,0,0,0-27.923Zm-90-2.491A16.452,16.452,0,1,1,4.72,372.429,16.478,16.478,0,0,1,21.172,355.977Z" transform="translate(-0.001 -264.237)" fill="#4e9a46"/>
      <path id="Path_151" data-name="Path 151" d="M67.905,49.385V60.816a1.874,1.874,0,1,0,3.747,0V46.423a1.874,1.874,0,0,0-2.69-1.687L66.551,45.9a1.874,1.874,0,0,0,1.354,3.481Z" transform="translate(-48.403 -33.42)" fill="#4e9a46"/>
      <path id="Path_152" data-name="Path 152" d="M407.535,235.515a1.874,1.874,0,0,0,1.361,3.161h8.789a1.874,1.874,0,0,0,0-3.747h-4.438l3.816-4.035.031-.034a6.66,6.66,0,0,0,1.793-5,5.987,5.987,0,0,0-2.261-4.218,5.663,5.663,0,0,0-4.761-1.1,6.864,6.864,0,0,0-4.622,3.454,1.874,1.874,0,0,0,3.3,1.768,3.121,3.121,0,0,1,2.07-1.551,1.973,1.973,0,0,1,1.666.352,2.247,2.247,0,0,1,.869,1.6,2.954,2.954,0,0,1-.83,2.178Z" transform="translate(-304.612 -165.349)" fill="#4e9a46"/>
      <path id="Path_153" data-name="Path 153" d="M70.493,411.049H66.744a1.874,1.874,0,1,0,0,3.747h3.749a5.5,5.5,0,0,0,4.133-9.132,5.5,5.5,0,0,0-4.133-9.132H66.744a1.874,1.874,0,1,0,0,3.747h3.749a1.755,1.755,0,0,1,0,3.511H66.744a1.874,1.874,0,1,0,0,3.747h3.749a1.755,1.755,0,0,1,0,3.511Z" transform="translate(-47.935 -297.473)" fill="#4e9a46"/>
      <path id="Path_154" data-name="Path 154" d="M18.68,214.024H98.973a20.189,20.189,0,0,0,29.322-12.891,1.874,1.874,0,0,0-3.64-.891,16.452,16.452,0,1,1,0-7.852,1.874,1.874,0,0,0,3.64-.891,20.189,20.189,0,0,0-29.322-12.891H18.68a17.708,17.708,0,0,0,0,35.417Zm0-31.67H94.1a20.164,20.164,0,0,0,0,27.923H18.68a13.961,13.961,0,0,1,0-27.923Z" transform="translate(0 -132.12)" fill="#4e9a46"/>
      <path id="Path_155" data-name="Path 155" d="M191.5,400.28h22.852a1.874,1.874,0,1,0,0-3.747H191.5a1.874,1.874,0,1,0,0,3.747Z" transform="translate(-141.525 -297.473)" fill="#4e9a46"/>
      <path id="Path_156" data-name="Path 156" d="M191.5,429.719h49.484a1.874,1.874,0,1,0,0-3.747H191.5a1.874,1.874,0,1,0,0,3.747Z" transform="translate(-141.525 -319.557)" fill="#4e9a46"/>
      <path id="Path_157" data-name="Path 157" d="M191.5,459.159h49.484a1.874,1.874,0,1,0,0-3.747H191.5a1.874,1.874,0,1,0,0,3.747Z" transform="translate(-141.525 -341.643)" fill="#4e9a46"/>
      <path id="Path_158" data-name="Path 158" d="M214.352,43.532H191.5a1.874,1.874,0,0,0,0,3.747h22.852a1.874,1.874,0,0,0,0-3.747Z" transform="translate(-141.525 -32.657)" fill="#4e9a46"/>
      <path id="Path_159" data-name="Path 159" d="M240.984,72.971H191.5a1.874,1.874,0,1,0,0,3.747h49.484a1.874,1.874,0,1,0,0-3.747Z" transform="translate(-141.525 -54.742)" fill="#4e9a46"/>
      <path id="Path_160" data-name="Path 160" d="M240.984,102.41H191.5a1.874,1.874,0,1,0,0,3.747h49.484a1.874,1.874,0,1,0,0-3.747Z" transform="translate(-141.525 -76.826)" fill="#4e9a46"/>
      <path id="Path_161" data-name="Path 161" d="M97.173,223.78h22.852a1.874,1.874,0,0,0,0-3.747H97.173a1.874,1.874,0,1,0,0,3.747Z" transform="translate(-70.763 -165.065)" fill="#4e9a46"/>
      <path id="Path_162" data-name="Path 162" d="M97.173,253.219h49.484a1.874,1.874,0,1,0,0-3.747H97.173a1.874,1.874,0,1,0,0,3.747Z" transform="translate(-70.763 -187.15)" fill="#4e9a46"/>
      <path id="Path_163" data-name="Path 163" d="M97.173,282.658h49.484a1.874,1.874,0,1,0,0-3.747H97.173a1.874,1.874,0,1,0,0,3.747Z" transform="translate(-70.763 -209.235)" fill="#4e9a46"/>
    </g>
  </g>
</svg>
