<svg xmlns="http://www.w3.org/2000/svg" width="140" height="136.673" viewBox="0 0 140 136.673">
  <g id="collaboration" transform="translate(1252 222.757)">
    <path id="Path_164" data-name="Path 164" d="M19.51,57.65c.721-1.666,1.519-3.279,2.379-4.829a54.707,54.707,0,0,1,3.589-5.658,2.048,2.048,0,0,1,3.318,2.4,51.054,51.054,0,0,0-3.333,5.24c-.519.93-1.008,1.883-1.465,2.845H31.47A2.046,2.046,0,0,1,33.524,59.7V77.648a12.971,12.971,0,0,1-1.147,5.341,17.844,17.844,0,0,1,5.395,3.372,9.086,9.086,0,0,1,3.17,6.627v10.006a2.058,2.058,0,0,1-2.054,2.054H26.152c.674,1.155,1.4,2.286,2.155,3.379a49.77,49.77,0,0,0,4.643,5.728,2.048,2.048,0,0,1-2.984,2.806,55.685,55.685,0,0,1-5.023-6.193,54.921,54.921,0,0,1-3.481-5.72H2.054A2.058,2.058,0,0,1,0,102.993V92.987A9.091,9.091,0,0,1,3.124,86.4a17.93,17.93,0,0,1,5.441-3.411,12.971,12.971,0,0,1-1.147-5.341V65.858a8.217,8.217,0,0,1,8.209-8.208H19.51ZM128.482,74.555l-10.82-3.666-7.077,3.472v3.286a8.949,8.949,0,0,0,17.9,0Zm-17.9-4.744,5.922-2.9a2.027,2.027,0,0,1,1.674-.171l10.3,3.488V65.859a4.129,4.129,0,0,0-4.108-4.108h-9.689a4.115,4.115,0,0,0-4.1,4.108v3.953ZM11.518,67.355h17.9v-5.6h-13.8a4.129,4.129,0,0,0-4.108,4.108v1.5Zm17.9,4.1h-17.9v6.193a8.953,8.953,0,0,0,17.905,0V71.455Zm49.529,40.561A14.259,14.259,0,0,1,67.287,108.9a10.737,10.737,0,0,1-6.24,1.488v4.968a8.952,8.952,0,0,0,17.9,0Zm-17.9-5.736a6.607,6.607,0,0,0,5.085-1.542l.008.008.046-.046a2.048,2.048,0,0,1,2.883.209c3.209,3.689,7.658,3.418,9.883,2.984v-4.325a4.128,4.128,0,0,0-4.108-4.108H65.156a4.128,4.128,0,0,0-4.108,4.108v2.713ZM30.066,86.469a13,13,0,0,1-19.192.008,14.556,14.556,0,0,0-4.93,2.883A5.143,5.143,0,0,0,4.1,92.987v7.96H36.841v-7.96a5.146,5.146,0,0,0-1.876-3.651,14.662,14.662,0,0,0-4.9-2.868Zm102.516-8.821a12.971,12.971,0,0,1-1.147,5.341,18.014,18.014,0,0,1,5.433,3.4,9.075,9.075,0,0,1,3.131,6.6v10.006a2.051,2.051,0,0,1-2.046,2.054H118.467a58.051,58.051,0,0,1-3.534,5.612,59.14,59.14,0,0,1-5.054,6.162,2.048,2.048,0,0,1-2.984-2.806,54.165,54.165,0,0,0,4.7-5.728q1.128-1.581,2.139-3.24H101.113a2.057,2.057,0,0,1-2.054-2.054V92.987a9.1,9.1,0,0,1,3.162-6.619,17.851,17.851,0,0,1,5.411-3.379,12.851,12.851,0,0,1-1.155-5.341V65.859a8.217,8.217,0,0,1,8.208-8.208h1.341c-.442-.946-.922-1.876-1.434-2.79a50.62,50.62,0,0,0-3.4-5.317,2.046,2.046,0,0,1,3.3-2.418,55.279,55.279,0,0,1,3.674,5.751,52.492,52.492,0,0,1,2.349,4.774h3.86a8.2,8.2,0,0,1,8.208,8.208V77.648Zm-3.457,8.828a13.011,13.011,0,0,1-19.192,0,14.575,14.575,0,0,0-4.906,2.868,5.15,5.15,0,0,0-1.86,3.643v7.96H135.9v-7.96a5.125,5.125,0,0,0-1.853-3.627,14.439,14.439,0,0,0-4.922-2.883Zm-46.072,28.88a12.944,12.944,0,0,1-1.147,5.341,18.036,18.036,0,0,1,5.433,3.41,11.151,11.151,0,0,1,1.907,2.341,49.9,49.9,0,0,0,4.8-2.349,52.311,52.311,0,0,0,6.216-4.085,2.043,2.043,0,1,1,2.48,3.248,56.241,56.241,0,0,1-6.712,4.41,52.526,52.526,0,0,1-5.565,2.7c.008.108.008.225.008.333V140.71a2.044,2.044,0,0,1-2.046,2.046H51.583a2.051,2.051,0,0,1-2.054-2.046V130.7c0-.109.008-.217.008-.325a57.006,57.006,0,0,1-5.689-2.7,54.971,54.971,0,0,1-6.7-4.3,2.04,2.04,0,1,1,2.449-3.263,52.083,52.083,0,0,0,6.2,3.976,50.851,50.851,0,0,0,4.945,2.364,11.439,11.439,0,0,1,1.891-2.325A17.8,17.8,0,0,1,58.1,120.7a12.856,12.856,0,0,1-1.155-5.348V103.568a8.23,8.23,0,0,1,8.208-8.208h9.689a8.23,8.23,0,0,1,8.208,8.208v11.789ZM79.6,124.185a13.011,13.011,0,0,1-19.191,0,14.543,14.543,0,0,0-4.945,2.907A5.119,5.119,0,0,0,53.63,130.7v7.952H86.37V130.7a5.128,5.128,0,0,0-1.845-3.627,14.557,14.557,0,0,0-4.93-2.891ZM34.64,42.831A2.045,2.045,0,0,1,31.8,39.885a53.346,53.346,0,0,1,9.805-7.5,28.477,28.477,0,0,1,56.777-.14c1.6.984,3.155,2.054,4.643,3.186a55.562,55.562,0,0,1,5.139,4.434,2.042,2.042,0,1,1-2.845,2.93,53.361,53.361,0,0,0-4.775-4.108c-.713-.55-1.441-1.07-2.17-1.573-.635,7.79-4.116,13.084-7.457,18.153-3.023,4.6-5.922,9-5.968,14.913l.008,9.479a9.937,9.937,0,0,1-9.906,9.906h-10.1a9.923,9.923,0,0,1-9.906-9.906l.007-9.479C55,64.27,52.11,59.867,49.088,55.271c-3.333-5.054-6.8-10.317-7.449-18.06-.767.512-1.519,1.046-2.256,1.6a48.909,48.909,0,0,0-4.744,4.023ZM59.148,76.555h21.7V72.4h-21.7Zm21.618,4.1H59.234a5.828,5.828,0,0,0,5.72,4.813h10.1a5.828,5.828,0,0,0,5.712-4.813ZM68.023,50.2c-.333-1.225-.915-2.9-1.573-4.814C64.6,40.032,62.133,32.9,62.133,27.514c0-5.17,1.977-8.859,7.867-8.859s7.875,3.689,7.875,8.859c0,5.387-2.465,12.518-4.317,17.874-.667,1.922-1.248,3.612-1.589,4.837a2.041,2.041,0,0,1-3.945-.023Zm-1.79-22.687c0,4.48,2.069,10.72,3.767,15.657,1.705-4.937,3.775-11.177,3.775-15.657,0-2.775-.953-4.759-3.775-4.759s-3.767,1.985-3.767,4.759Zm1.721,29.927a2.05,2.05,0,0,1,4.1,0v2.131a2.05,2.05,0,0,1-4.1,0ZM59.048,68.3h21.9c.543-6.131,3.488-10.611,6.558-15.27,3.356-5.1,6.867-10.441,6.867-18.47a24.373,24.373,0,1,0-48.746,0c0,8.03,3.511,13.37,6.867,18.47,3.061,4.659,6.015,9.138,6.55,15.27Z" transform="translate(-1252 -228.84)" fill="#4e9a46"/>
  </g>
</svg>
