<svg xmlns="http://www.w3.org/2000/svg" width="123.84" height="123.84" viewBox="0 0 123.84 123.84">
  <g id="Group_189" data-name="Group 189" transform="translate(-1475 -2864.16)">
    <g id="laptop-share-network-smartphone-smartphones" transform="translate(1473 2862.16)">
      <path id="Path_165" data-name="Path 165" d="M32.96,34H8.192A6.211,6.211,0,0,0,2,40.192V85.6a6.211,6.211,0,0,0,6.192,6.192H32.96A6.211,6.211,0,0,0,39.152,85.6V40.192A6.211,6.211,0,0,0,32.96,34Zm-6.77,4.128-1.032,4.128H15.994l-1.032-4.128ZM35.024,85.6a2.064,2.064,0,0,1-2.064,2.064H8.192A2.064,2.064,0,0,1,6.128,85.6V40.192a2.064,2.064,0,0,1,2.064-2.064H10.71l1.672,6.687a2.064,2.064,0,0,0,2,1.569H26.768a2.064,2.064,0,0,0,2-1.569l1.672-6.687H32.96a2.064,2.064,0,0,1,2.064,2.064Z" transform="translate(0 34.048)" fill="#4e9a46"/>
      <path id="Path_166" data-name="Path 166" d="M74.96,34H50.192A6.211,6.211,0,0,0,44,40.192V85.6a6.211,6.211,0,0,0,6.192,6.192H74.96A6.211,6.211,0,0,0,81.152,85.6V40.192A6.211,6.211,0,0,0,74.96,34Zm-6.77,4.128-1.032,4.128H57.994l-1.032-4.128ZM77.024,85.6a2.064,2.064,0,0,1-2.064,2.064H50.192A2.064,2.064,0,0,1,48.128,85.6V40.192a2.064,2.064,0,0,1,2.064-2.064H52.71l1.672,6.687a2.064,2.064,0,0,0,2,1.569H68.768a2.064,2.064,0,0,0,2-1.569l1.672-6.687H74.96a2.064,2.064,0,0,1,2.064,2.064Z" transform="translate(44.688 34.048)" fill="#4e9a46"/>
      <path id="Path_167" data-name="Path 167" d="M89.368,47.408H87.3V12.32A10.32,10.32,0,0,0,76.984,2H27.448a10.32,10.32,0,0,0-10.32,10.32V47.408H15.064A2.064,2.064,0,0,0,13,49.472V53.6A10.32,10.32,0,0,0,23.32,63.92H81.112A10.32,10.32,0,0,0,91.432,53.6V49.472A2.064,2.064,0,0,0,89.368,47.408ZM21.256,12.32a6.211,6.211,0,0,1,6.192-6.192H76.984a6.211,6.211,0,0,1,6.192,6.192V47.408H79.048V14.384a4.14,4.14,0,0,0-4.128-4.128H29.512a4.14,4.14,0,0,0-4.128,4.128V47.408H21.256ZM74.92,14.384V47.408H29.512V14.384ZM87.3,53.6a6.211,6.211,0,0,1-6.192,6.192H23.32A6.211,6.211,0,0,1,17.128,53.6V51.536H87.3Z" transform="translate(11.704 0)" fill="#4e9a46"/>
      <path id="Path_168" data-name="Path 168" d="M44.2,52.32a6.264,6.264,0,0,0-3.756-3.756V42H36.32v6.564a6.264,6.264,0,0,0-3.756,3.756H26v4.128h6.564a6.167,6.167,0,0,0,11.641,0h6.564V52.32Zm-5.82,4.128a2.064,2.064,0,1,1,2.064-2.064A2.064,2.064,0,0,1,38.384,56.448Z" transform="translate(25.536 42.56)" fill="#4e9a46"/>
      <path id="Path_169" data-name="Path 169" d="M31,34h4.128v4.128H31Z" transform="translate(30.856 34.048)" fill="#4e9a46"/>
      <path id="Path_170" data-name="Path 170" d="M31,38h4.128v4.128H31Z" transform="translate(30.856 38.304)" fill="#4e9a46"/>
      <path id="Path_171" data-name="Path 171" d="M22,47h4.128v4.128H22Z" transform="translate(21.28 47.88)" fill="#4e9a46"/>
      <path id="Path_172" data-name="Path 172" d="M40,47h4.128v4.128H40Z" transform="translate(40.432 47.88)" fill="#4e9a46"/>
      <path id="Path_173" data-name="Path 173" d="M11,6h4.128v4.128H11Z" transform="translate(9.576 4.256)" fill="#4e9a46"/>
      <path id="Path_174" data-name="Path 174" d="M7,6h4.128v4.128H7Z" transform="translate(5.32 4.256)" fill="#4e9a46"/>
      <path id="Path_175" data-name="Path 175" d="M7,10h4.128v4.128H7Z" transform="translate(5.32 8.512)" fill="#4e9a46"/>
      <path id="Path_176" data-name="Path 176" d="M7,14h4.128v4.128H7Z" transform="translate(5.32 12.768)" fill="#4e9a46"/>
      <path id="Path_177" data-name="Path 177" d="M7,18h4.128v4.128H7Z" transform="translate(5.32 17.024)" fill="#4e9a46"/>
      <path id="Path_178" data-name="Path 178" d="M7,22h4.128v4.128H7Z" transform="translate(5.32 21.28)" fill="#4e9a46"/>
      <path id="Path_179" data-name="Path 179" d="M7,26h4.128v4.128H7Z" transform="translate(5.32 25.536)" fill="#4e9a46"/>
      <path id="Path_180" data-name="Path 180" d="M7,30h4.128v4.128H7Z" transform="translate(5.32 29.792)" fill="#4e9a46"/>
      <path id="Path_181" data-name="Path 181" d="M51,6h4.128v4.128H51Z" transform="translate(52.136 4.256)" fill="#4e9a46"/>
      <path id="Path_182" data-name="Path 182" d="M55,6h4.128v4.128H55Z" transform="translate(56.392 4.256)" fill="#4e9a46"/>
      <path id="Path_183" data-name="Path 183" d="M55,10h4.128v4.128H55Z" transform="translate(56.392 8.512)" fill="#4e9a46"/>
      <path id="Path_184" data-name="Path 184" d="M55,14h4.128v4.128H55Z" transform="translate(56.392 12.768)" fill="#4e9a46"/>
      <path id="Path_185" data-name="Path 185" d="M55,18h4.128v4.128H55Z" transform="translate(56.392 17.024)" fill="#4e9a46"/>
      <path id="Path_186" data-name="Path 186" d="M55,22h4.128v4.128H55Z" transform="translate(56.392 21.28)" fill="#4e9a46"/>
      <path id="Path_187" data-name="Path 187" d="M55,26h4.128v4.128H55Z" transform="translate(56.392 25.536)" fill="#4e9a46"/>
      <path id="Path_188" data-name="Path 188" d="M55,30h4.128v4.128H55Z" transform="translate(56.392 29.792)" fill="#4e9a46"/>
      <path id="Path_189" data-name="Path 189" d="M50,56H62.384v4.128H50Z" transform="translate(51.072 57.456)" fill="#4e9a46"/>
      <path id="Path_190" data-name="Path 190" d="M8,56H20.384v4.128H8Z" transform="translate(6.384 57.456)" fill="#4e9a46"/>
    </g>
  </g>
</svg>
